<svg width="40" height="40" viewBox="0 0 40 40" fill="none" xmlns="http://www.w3.org/2000/svg">
<path d="M30.9091 0H12.7273C10.9604 0.00213063 9.23254 0.476176 7.75493 1.36417C6.27732 2.25215 5.11401 3.5156 4.40727 5H1.81818C1.33597 5 0.873508 5.17559 0.532533 5.48816C0.191558 5.80072 0 6.22464 0 6.66667C0 7.10869 0.191558 7.53262 0.532533 7.84518C0.873508 8.15774 1.33597 8.33333 1.81818 8.33333H3.63636V11.6667H1.81818C1.33597 11.6667 0.873508 11.8423 0.532533 12.1548C0.191558 12.4674 0 12.8913 0 13.3333C0 13.7754 0.191558 14.1993 0.532533 14.5118C0.873508 14.8244 1.33597 15 1.81818 15H3.63636V18.3333H1.81818C1.33597 18.3333 0.873508 18.5089 0.532533 18.8215C0.191558 19.134 0 19.558 0 20C0 20.442 0.191558 20.8659 0.532533 21.1785C0.873508 21.4911 1.33597 21.6667 1.81818 21.6667H3.63636V25H1.81818C1.33597 25 0.873508 25.1756 0.532533 25.4882C0.191558 25.8007 0 26.2246 0 26.6667C0 27.1087 0.191558 27.5326 0.532533 27.8452C0.873508 28.1577 1.33597 28.3333 1.81818 28.3333H3.63636V31.6667H1.81818C1.33597 31.6667 0.873508 31.8423 0.532533 32.1548C0.191558 32.4674 0 32.8913 0 33.3333C0 33.7754 0.191558 34.1993 0.532533 34.5118C0.873508 34.8244 1.33597 35 1.81818 35H4.40727C5.11401 36.4844 6.27732 37.7478 7.75493 38.6358C9.23254 39.5238 10.9604 39.9979 12.7273 40H30.9091C33.3193 39.9974 35.6299 39.1185 37.3341 37.5563C39.0384 35.9941 39.9971 33.876 40 31.6667V8.33333C39.9971 6.12401 39.0384 4.00593 37.3341 2.4437C35.6299 0.88147 33.3193 0.00264643 30.9091 0V0ZM36.3636 31.6667C36.3636 32.9927 35.789 34.2645 34.766 35.2022C33.7431 36.1399 32.3557 36.6667 30.9091 36.6667H12.7273C11.2806 36.6667 9.89325 36.1399 8.87033 35.2022C7.8474 34.2645 7.27273 32.9927 7.27273 31.6667V8.33333C7.27273 7.00725 7.8474 5.73548 8.87033 4.7978C9.89325 3.86012 11.2806 3.33333 12.7273 3.33333H30.9091C32.3557 3.33333 33.7431 3.86012 34.766 4.7978C35.789 5.73548 36.3636 7.00725 36.3636 8.33333V31.6667ZM21.8182 20C23.2648 20 24.6522 19.4732 25.6751 18.5355C26.6981 17.5979 27.2727 16.3261 27.2727 15C27.2727 13.6739 26.6981 12.4021 25.6751 11.4645C24.6522 10.5268 23.2648 10 21.8182 10C20.3715 10 18.9842 10.5268 17.9612 11.4645C16.9383 12.4021 16.3636 13.6739 16.3636 15C16.3636 16.3261 16.9383 17.5979 17.9612 18.5355C18.9842 19.4732 20.3715 20 21.8182 20ZM30.9091 30C30.9091 30.442 30.7175 30.866 30.3766 31.1785C30.0356 31.4911 29.5731 31.6667 29.0909 31.6667C28.6087 31.6667 28.1462 31.4911 27.8053 31.1785C27.4643 30.866 27.2727 30.442 27.2727 30C27.2727 28.6739 26.6981 27.4021 25.6751 26.4645C24.6522 25.5268 23.2648 25 21.8182 25C20.3715 25 18.9842 25.5268 17.9612 26.4645C16.9383 27.4021 16.3636 28.6739 16.3636 30C16.3636 30.442 16.1721 30.866 15.8311 31.1785C15.4901 31.4911 15.0277 31.6667 14.5455 31.6667C14.0632 31.6667 13.6008 31.4911 13.2598 31.1785C12.9188 30.866 12.7273 30.442 12.7273 30C13.1109 18.9867 30.5291 18.99 30.9091 30Z" fill="#FE8B6F"/>
</svg>
