<svg width="237" height="27" viewBox="0 0 237 27" fill="none" xmlns="http://www.w3.org/2000/svg">
<path d="M3.376 3.064V10.52H11.504V12.92H3.376V20.6H12.464V23H0.464V0.664H12.464V3.064H3.376ZM31.6543 18.04H21.9263L20.1343 23H17.0623L25.1263 0.823999H28.4863L36.5183 23H33.4463L31.6543 18.04ZM30.8223 15.672L26.7903 4.408L22.7583 15.672H30.8223ZM58.5288 7.16C57.9101 5.85867 57.0141 4.856 55.8408 4.152C54.6674 3.42667 53.3021 3.064 51.7448 3.064C50.1874 3.064 48.7794 3.42667 47.5208 4.152C46.2834 4.856 45.3021 5.88 44.5768 7.224C43.8728 8.54667 43.5208 10.0827 43.5208 11.832C43.5208 13.5813 43.8728 15.1173 44.5768 16.44C45.3021 17.7627 46.2834 18.7867 47.5208 19.512C48.7794 20.216 50.1874 20.568 51.7448 20.568C53.9208 20.568 55.7128 19.9173 57.1208 18.616C58.5288 17.3147 59.3501 15.5547 59.5848 13.336H50.6888V10.968H62.6888V13.208C62.5181 15.0427 61.9421 16.728 60.9608 18.264C59.9794 19.7787 58.6888 20.984 57.0888 21.88C55.4888 22.7547 53.7074 23.192 51.7448 23.192C49.6754 23.192 47.7874 22.712 46.0808 21.752C44.3741 20.7707 43.0194 19.416 42.0168 17.688C41.0354 15.96 40.5448 14.008 40.5448 11.832C40.5448 9.656 41.0354 7.704 42.0168 5.976C43.0194 4.22667 44.3741 2.872 46.0808 1.912C47.7874 0.930665 49.6754 0.439999 51.7448 0.439999C54.1128 0.439999 56.2034 1.02667 58.0168 2.2C59.8514 3.37333 61.1848 5.02667 62.0168 7.16H58.5288ZM71.051 20.632H78.859V23H68.139V0.695999H71.051V20.632ZM86.4635 3.064V10.52H94.5915V12.92H86.4635V20.6H95.5515V23H83.5515V0.664H95.5515V3.064H86.4635ZM109.398 23.224C106.774 23.224 104.619 22.6053 102.934 21.368C101.248 20.1093 100.342 18.3173 100.214 15.992H106.902C106.966 16.7813 107.2 17.3573 107.606 17.72C108.011 18.0827 108.534 18.264 109.174 18.264C109.75 18.264 110.219 18.1253 110.582 17.848C110.966 17.5493 111.158 17.144 111.158 16.632C111.158 15.9707 110.848 15.4587 110.23 15.096C109.611 14.7333 108.608 14.328 107.222 13.88C105.75 13.3893 104.555 12.92 103.638 12.472C102.742 12.0027 101.952 11.3307 101.27 10.456C100.608 9.56 100.278 8.39733 100.278 6.968C100.278 5.51733 100.64 4.28 101.366 3.256C102.091 2.21067 103.094 1.42133 104.374 0.887999C105.654 0.354666 107.104 0.0879993 108.726 0.0879993C111.35 0.0879993 113.44 0.706666 114.998 1.944C116.576 3.16 117.419 4.87733 117.526 7.096H110.71C110.688 6.41333 110.475 5.90133 110.07 5.56C109.686 5.21867 109.184 5.048 108.566 5.048C108.096 5.048 107.712 5.18667 107.414 5.464C107.115 5.74133 106.966 6.136 106.966 6.648C106.966 7.07467 107.126 7.448 107.446 7.768C107.787 8.06667 108.203 8.33333 108.694 8.568C109.184 8.78133 109.91 9.05867 110.87 9.4C112.299 9.89067 113.472 10.3813 114.39 10.872C115.328 11.3413 116.128 12.0133 116.79 12.888C117.472 13.7413 117.814 14.8293 117.814 16.152C117.814 17.496 117.472 18.7013 116.79 19.768C116.128 20.8347 115.158 21.6773 113.878 22.296C112.619 22.9147 111.126 23.224 109.398 23.224ZM137.785 26.776L135.289 23.032C134.585 23.16 133.871 23.224 133.145 23.224C131.033 23.224 129.092 22.7333 127.321 21.752C125.551 20.7493 124.143 19.3733 123.097 17.624C122.073 15.8533 121.561 13.8587 121.561 11.64C121.561 9.42133 122.073 7.43733 123.097 5.688C124.143 3.91733 125.551 2.54133 127.321 1.56C129.092 0.578666 131.033 0.0879993 133.145 0.0879993C135.279 0.0879993 137.22 0.578666 138.969 1.56C140.74 2.54133 142.137 3.91733 143.161 5.688C144.185 7.43733 144.698 9.42133 144.698 11.64C144.698 13.496 144.324 15.2133 143.577 16.792C142.831 18.3493 141.807 19.6507 140.505 20.696L145.274 26.776H137.785ZM127.961 11.64C127.961 13.4107 128.42 14.8187 129.337 15.864C130.255 16.888 131.524 17.4 133.145 17.4C134.745 17.4 136.004 16.8773 136.921 15.832C137.86 14.7867 138.33 13.3893 138.33 11.64C138.33 9.848 137.86 8.44 136.921 7.416C136.004 6.37067 134.745 5.848 133.145 5.848C131.524 5.848 130.255 6.37067 129.337 7.416C128.42 8.44 127.961 9.848 127.961 11.64ZM155.292 0.439999V13.528C155.292 14.744 155.57 15.6827 156.124 16.344C156.7 17.0053 157.564 17.336 158.716 17.336C159.868 17.336 160.732 17.0053 161.308 16.344C161.906 15.6613 162.204 14.7227 162.204 13.528V0.439999H168.476V13.528C168.476 15.5973 168.039 17.368 167.164 18.84C166.29 20.2907 165.095 21.3893 163.58 22.136C162.087 22.8613 160.423 23.224 158.588 23.224C156.754 23.224 155.111 22.8613 153.66 22.136C152.231 21.3893 151.1 20.2907 150.268 18.84C149.458 17.3893 149.052 15.6187 149.052 13.528V0.439999H155.292ZM187.802 19.32H179.802L178.586 23H171.994L180.218 0.439999H187.45L195.642 23H189.018L187.802 19.32ZM186.234 14.52L183.802 7.224L181.402 14.52H186.234ZM210.71 23L206.23 14.68H205.558V23H199.286V0.439999H209.174C210.987 0.439999 212.523 0.759999 213.782 1.4C215.04 2.01867 215.99 2.88267 216.63 3.992C217.27 5.08 217.59 6.30667 217.59 7.672C217.59 9.208 217.163 10.5627 216.31 11.736C215.478 12.888 214.251 13.7093 212.63 14.2L217.718 23H210.71ZM205.558 10.392H208.662C209.515 10.392 210.155 10.1893 210.582 9.784C211.008 9.37867 211.222 8.792 211.222 8.024C211.222 7.29867 210.998 6.73333 210.55 6.328C210.123 5.90133 209.494 5.688 208.662 5.688H205.558V10.392ZM228.314 5.464V9.144H235.514V13.912H228.314V17.976H236.474V23H222.042V0.439999H236.474V5.464H228.314Z" fill="#444444"/>
</svg>
