<svg width="40" height="40" viewBox="0 0 40 40" fill="none" xmlns="http://www.w3.org/2000/svg">
<path d="M37.4317 13.4883L25.8917 2.42336C24.3277 0.875171 22.2178 0.00469887 20.0176 1.89678e-05C17.8175 -0.00466094 15.7038 0.856827 14.1333 2.39835L2.56667 13.4883C1.75769 14.2678 1.1136 15.202 0.672681 16.2355C0.231759 17.269 0.00300037 18.3806 0 19.5043L0 31.663C0.00264643 33.8733 0.88147 35.9923 2.4437 37.5552C4.00593 39.1181 6.12401 39.9974 8.33333 40H31.6667C33.876 39.9974 35.9941 39.1181 37.5563 37.5552C39.1185 35.9923 39.9974 33.8733 40 31.663V19.5043C39.9971 18.3804 39.7682 17.2687 39.3269 16.2351C38.8857 15.2016 38.2412 14.2675 37.4317 13.4883ZM16.465 4.78107C17.4101 3.84398 18.6883 3.32045 20.0189 3.32545C21.3494 3.33046 22.6237 3.86358 23.5617 4.80775L34.8067 15.5859L23.535 26.8642C22.5822 27.7728 21.3163 28.2797 20 28.2797C18.6837 28.2797 17.4178 27.7728 16.465 26.8642L5.19167 15.5859L16.465 4.78107ZM36.6667 31.663C36.6667 32.9896 36.1399 34.262 35.2022 35.2001C34.2645 36.1382 32.9927 36.6652 31.6667 36.6652H8.33333C7.00725 36.6652 5.73548 36.1382 4.7978 35.2001C3.86012 34.262 3.33333 32.9896 3.33333 31.663V19.5043C3.33501 19.1806 3.36794 18.8578 3.43167 18.5405L14.1083 29.2219C15.6762 30.7751 17.7935 31.6464 20 31.6464C22.2065 31.6464 24.3238 30.7751 25.8917 29.2219L36.5683 18.5405C36.6321 18.8578 36.665 19.1806 36.6667 19.5043V31.663Z" fill="#FE8B6F"/>
</svg>
