<svg width="99" height="104" viewBox="0 0 99 104" fill="none" xmlns="http://www.w3.org/2000/svg">
<rect x="47" y="2" width="50" height="50" rx="15" fill="#FE8B6F" fill-opacity="0.2"/>
<path d="M93.5893 44.8786C95.7576 48.4044 96.9998 52.504 96.9998 56.878C96.9998 70.0676 85.7057 80.7601 71.7738 80.7601C57.842 80.7601 46.5479 70.0676 46.5479 56.878C46.5479 43.6883 57.842 32.9959 71.7738 32.9959C74.0845 32.994 76.3845 33.2926 78.6093 33.8831" stroke="#FE8B6F" stroke-width="4" stroke-miterlimit="10" stroke-linecap="round" stroke-linejoin="round"/>
<path d="M46.548 56.878C46.548 62.9004 48.9032 68.4024 52.7912 72.6036C47.396 77.4674 40.0945 80.4552 32.0565 80.4552C15.4567 80.4552 2 67.7154 2 52C2 36.2845 15.4567 23.5447 32.0565 23.5447C42.879 23.5447 52.3661 28.9593 57.6582 37.0853C50.9556 41.376 46.548 48.6402 46.548 56.878Z" stroke="#FE8B6F" stroke-width="4" stroke-miterlimit="10" stroke-linecap="round" stroke-linejoin="round"/>
<path d="M54.8926 74.6219C51.4855 80.689 48.1578 86.0102 48.1578 91.2276V102H15.9544V91.2276C15.9544 80.6423 2.2186 69.5955 2.00391 52.7663C2.23362 68.1301 15.7268 80.4553 32.0561 80.4553C40.0748 80.4553 47.4085 77.4837 52.823 72.6382C53.4692 73.3374 54.1605 74 54.8926 74.6219ZM58.5724 36.5244C58.2847 36.6911 58.0013 36.8638 57.7222 37.0427C52.4237 28.9411 42.8614 23.5447 32.0561 23.5447C15.7268 23.5447 2.23362 35.8699 2.00391 51.2337C2.2186 34.4045 15.9544 23.3699 15.9544 12.7724V2H48.1578V12.7724C48.1578 19.9309 54.4396 27.2988 58.5724 36.5244Z" stroke="#FE8B6F" stroke-width="4" stroke-miterlimit="10" stroke-linecap="round" stroke-linejoin="round"/>
<path d="M48.1585 92.6504H39.5709V88.5854H24.5426V92.6504H15.9551M15.9551 11.3496H24.5426V15.4147H39.5709V11.3496H48.1585" stroke="#FE8B6F" stroke-width="4" stroke-miterlimit="10" stroke-linecap="round" stroke-linejoin="round"/>
<path d="M32.0565 56.0651C34.4279 56.0651 36.3503 54.2452 36.3503 52.0001C36.3503 49.755 34.4279 47.9351 32.0565 47.9351C29.6851 47.9351 27.7627 49.755 27.7627 52.0001C27.7627 54.2452 29.6851 56.0651 32.0565 56.0651Z" stroke="#FE8B6F" stroke-width="4" stroke-miterlimit="10" stroke-linecap="round" stroke-linejoin="round"/>
<path d="M60.6211 68.5651C63.5709 71.0915 67.4825 72.6302 71.7742 72.6302C76.0658 72.6302 79.9774 71.0915 82.9273 68.5651M60.6211 45.1911C63.5709 42.6647 67.4825 41.1261 71.7742 41.1261C76.0658 41.1261 79.9774 42.6647 82.9273 45.1911M41.1958 43.3769L35.108 49.1401M16.9062 37.6279L29.036 49.1113" stroke="#FE8B6F" stroke-width="4" stroke-miterlimit="10" stroke-linecap="round" stroke-linejoin="round"/>
<ellipse cx="87.4997" cy="38.9749" rx="3.16667" ry="2.99797" fill="#FE8B6F"/>
<ellipse cx="32.611" cy="30.9804" rx="3.16667" ry="2.99797" fill="#FE8B6F"/>
<ellipse cx="9.38835" cy="52.9655" rx="3.16667" ry="2.99797" fill="#FE8B6F"/>
<ellipse cx="32.611" cy="72.9521" rx="3.16667" ry="2.99797" fill="#FE8B6F"/>
</svg>
