<svg width="99" height="104" viewBox="0 0 99 104" fill="none" xmlns="http://www.w3.org/2000/svg">
<rect x="47" y="2" width="50" height="50" rx="15" fill="#FE8B6F" fill-opacity="0.2"/>
<path d="M21.6521 30.8797C22.9215 28.9631 24.3927 27.1824 26.0414 25.5669C38.9972 12.867 60.0024 12.867 72.9581 25.5669C85.9138 38.2668 85.9138 58.8576 72.9581 71.5576C60.0024 84.2575 38.9972 84.2575 26.0414 71.5576C19.4756 65.1214 16.2392 56.6584 16.329 48.2235" stroke="#FE8B6F" stroke-width="4" stroke-miterlimit="22.926" stroke-linecap="round" stroke-linejoin="round"/>
<path d="M67.0942 31.316C76.811 40.8409 76.811 56.284 67.0942 65.8089C57.3774 75.3339 41.6235 75.3339 31.9067 65.8089C22.19 56.284 22.19 40.8409 31.9067 31.316C41.6235 21.791 57.3774 21.791 67.0942 31.316Z" stroke="#FE8B6F" stroke-width="4" stroke-miterlimit="22.926" stroke-linecap="round" stroke-linejoin="round"/>
<path d="M58.2966 39.9394L49.5 48.5624L55.3641 54.3109" stroke="#FE8B6F" stroke-width="4" stroke-miterlimit="22.926" stroke-linecap="round" stroke-linejoin="round"/>
<path d="M72.564 25.9533L64.1611 34.1903" stroke="#FE8B6F" stroke-width="4" stroke-miterlimit="22.926" stroke-linecap="round" stroke-linejoin="round"/>
<path d="M55.8333 25.3926L54.8662 28.9298" stroke="#FE8B6F" stroke-width="4" stroke-miterlimit="22.926" stroke-linecap="round" stroke-linejoin="round"/>
<path d="M43.167 25.3926L44.1338 28.9298" stroke="#FE8B6F" stroke-width="4" stroke-miterlimit="22.926" stroke-linecap="round" stroke-linejoin="round"/>
<path d="M25.8633 42.3542L29.4719 43.3021" stroke="#FE8B6F" stroke-width="4" stroke-miterlimit="22.926" stroke-linecap="round" stroke-linejoin="round"/>
<path d="M25.8633 54.7708L29.4719 53.8228" stroke="#FE8B6F" stroke-width="4" stroke-miterlimit="22.926" stroke-linecap="round" stroke-linejoin="round"/>
<path d="M43.167 71.7322L44.1338 68.1948" stroke="#FE8B6F" stroke-width="4" stroke-miterlimit="22.926" stroke-linecap="round" stroke-linejoin="round"/>
<path d="M55.8333 71.7322L54.8662 68.1948" stroke="#FE8B6F" stroke-width="4" stroke-miterlimit="22.926" stroke-linecap="round" stroke-linejoin="round"/>
<path d="M73.136 54.7708L69.5273 53.8228" stroke="#FE8B6F" stroke-width="4" stroke-miterlimit="22.926" stroke-linecap="round" stroke-linejoin="round"/>
<path d="M73.136 42.3542L69.5273 43.3021" stroke="#FE8B6F" stroke-width="4" stroke-miterlimit="22.926" stroke-linecap="round" stroke-linejoin="round"/>
<path d="M26.4355 25.9533L34.8384 34.1903" stroke="#FE8B6F" stroke-width="4" stroke-miterlimit="22.926" stroke-linecap="round" stroke-linejoin="round"/>
<path d="M26.4355 71.1714L34.8384 62.9344" stroke="#FE8B6F" stroke-width="4" stroke-miterlimit="22.926" stroke-linecap="round" stroke-linejoin="round"/>
<path d="M72.564 71.1714L64.1611 62.9344" stroke="#FE8B6F" stroke-width="4" stroke-miterlimit="22.926" stroke-linecap="round" stroke-linejoin="round"/>
<path d="M92.1654 19.6749L95.8304 23.2676C97.4431 24.8487 97.3362 27.3373 95.8304 29.0164L82.3537 44.0433M54.1104 16.3575L69.4397 3.14675C71.1528 1.67054 73.6917 1.56587 75.3044 3.14675L78.9703 6.74024" stroke="#FE8B6F" stroke-width="4" stroke-miterlimit="22.926" stroke-linecap="round" stroke-linejoin="round"/>
<path d="M44.8898 80.7675L29.5604 93.9783C27.8474 95.4545 25.3086 95.5591 23.6959 93.9783L3.16992 73.8574C1.55699 72.2765 1.66398 69.7877 3.16992 68.1086L16.6466 53.0819" stroke="#FE8B6F" stroke-width="4" stroke-miterlimit="22.926" stroke-linecap="round" stroke-linejoin="round"/>
<path d="M77.3224 83.2726L80.9802 80.2991C81.6476 79.7566 82.121 79.4853 82.6754 79.4853C83.2298 79.4853 83.7032 79.7566 84.3706 80.2991L88.0284 83.2726C88.6931 83.8131 88.8957 84.3645 88.8957 85.1948V100.428C88.8957 101.294 88.1756 102 87.2923 102H78.0583C77.1752 102 76.4551 101.294 76.4551 100.428V85.1948C76.4551 84.3645 76.6577 83.8131 77.3224 83.2726Z" stroke="#FE8B6F" stroke-width="4" stroke-miterlimit="22.926" stroke-linecap="round" stroke-linejoin="round"/>
<path d="M82.6748 83.2378V48.5623" stroke="#FE8B6F" stroke-width="4" stroke-miterlimit="22.926" stroke-linecap="round" stroke-linejoin="round"/>
<path d="M85.5674 13.207H85.569" stroke="#FE8B6F" stroke-width="4" stroke-miterlimit="2.613" stroke-linecap="round" stroke-linejoin="round"/>
<path d="M17.7275 39.1797H17.729" stroke="#FE8B6F" stroke-width="4" stroke-miterlimit="2.613" stroke-linecap="round" stroke-linejoin="round"/>
</svg>
