<svg width="104" height="104" viewBox="0 0 104 104" fill="none" xmlns="http://www.w3.org/2000/svg">
<rect x="52" y="2" width="50" height="50" rx="15" fill="#FE8B6F" fill-opacity="0.2"/>
<path d="M23.2755 36.0862C16.3497 48.5722 18.1865 64.6154 28.7854 75.2146C41.6061 88.0353 62.3926 88.0353 75.2133 75.2146C88.034 62.3937 88.034 41.6073 75.2133 28.7867C64.6144 18.1875 48.5711 16.3509 36.0854 23.2765" stroke="#FE8B6F" stroke-width="4" stroke-miterlimit="10" stroke-linecap="round" stroke-linejoin="round"/>
<path d="M75.7094 52.0006C75.7094 38.9059 65.094 28.2905 51.9994 28.2905C38.9045 28.2905 28.2891 38.9059 28.2891 52.0006C28.2891 65.0953 38.9045 75.7107 51.9994 75.7107C65.094 75.7107 75.7094 65.0953 75.7094 52.0006Z" stroke="#FE8B6F" stroke-width="4" stroke-miterlimit="10" stroke-linecap="round" stroke-linejoin="round"/>
<path d="M52 39.2337V52.0007H61.1193" stroke="#FE8B6F" stroke-width="4" stroke-miterlimit="10" stroke-linecap="round" stroke-linejoin="round"/>
<path d="M79.8426 69.4852L84.6115 74.2541C85.539 75.1816 85.539 76.6854 84.6115 77.613L77.653 84.5714C76.7256 85.499 75.2217 85.499 74.2943 84.5714L69.5254 79.8025" stroke="#FE8B6F" stroke-width="4" stroke-miterlimit="10" stroke-linecap="round" stroke-linejoin="round"/>
<path d="M44.1212 84.3832L27.8391 100.665C26.0584 102.446 23.1714 102.446 21.3907 100.665L3.33551 82.6098C1.55483 80.8293 1.55483 77.9421 3.33551 76.1616L19.6176 59.8796" stroke="#FE8B6F" stroke-width="4" stroke-miterlimit="10" stroke-linecap="round" stroke-linejoin="round"/>
<path d="M84.3825 44.1218L100.665 27.8398C102.445 26.0591 102.445 23.1721 100.665 21.3914L82.6091 3.33618C80.8286 1.5555 77.9415 1.5555 76.161 3.33618L59.8789 19.6182" stroke="#FE8B6F" stroke-width="4" stroke-miterlimit="10" stroke-linecap="round" stroke-linejoin="round"/>
</svg>
