<svg width="95" height="100" viewBox="0 0 95 100" fill="none" xmlns="http://www.w3.org/2000/svg">
<rect x="45" width="50" height="50" rx="15" fill="#FE8B6F" fill-opacity="0.2"/>
<path d="M94.4103 35.9238C94.032 35.5589 93.5207 35.3533 92.9873 35.3516H84.2656C82.1194 29.7145 78.7254 24.5451 74.2157 20.1689C72.9334 18.9241 71.5732 17.7572 70.143 16.6746V1.95312C70.143 0.874609 69.2419 0 68.1303 0H18.8189C17.7072 0 16.8061 0.874609 16.8061 1.95312V16.6746C15.3759 17.7572 14.0158 18.9241 12.7334 20.1689C4.52216 28.1373 0 38.7314 0 50C0 61.2686 4.52216 71.8629 12.7334 79.8311C14.0158 81.0759 15.3759 82.2429 16.8061 83.3254V98.0469C16.8061 99.1254 17.7072 100 18.8189 100H68.1303C69.2419 100 70.143 99.1254 70.143 98.0469V83.3254C71.5733 82.2429 72.9334 81.0759 74.2157 79.8311C78.7254 75.4549 82.1194 70.2854 84.2656 64.6484H92.9873C93.5166 64.6484 94.0359 64.4395 94.4103 64.076C94.7864 63.709 94.9983 63.2129 95 62.6953V58.7891C95 57.7129 94.0963 56.8359 92.9873 56.8359C91.8783 56.8359 90.9746 57.7129 90.9746 58.7891V60.7422H85.5318C86.4651 57.2781 86.9492 53.6754 86.9492 50C86.9492 46.3246 86.4651 42.7221 85.5318 39.2578H90.9746V41.2109C90.9746 42.2871 91.8783 43.1641 92.9873 43.1641C94.0963 43.1641 95 42.2871 95 41.2109V37.3047C95 36.791 94.7846 36.2871 94.4103 35.9238ZM66.1176 13.9705C64.516 13.0176 62.8517 12.1676 61.1355 11.426C61.7089 11.0818 62.0922 10.4678 62.0922 9.76562V3.90625H66.1176V13.9705ZM58.0667 3.90625V7.8125H28.8824V3.90625H58.0667ZM20.8316 3.90625H24.857V9.76562C24.857 10.468 25.2402 11.0818 25.8136 11.426C24.0974 12.1676 22.4331 13.0176 20.8316 13.9705V3.90625ZM20.8316 86.0295C22.4332 86.9824 24.0974 87.8324 25.8136 88.574C25.2402 88.9182 24.857 89.5322 24.857 90.2344V96.0938H20.8316V86.0295ZM28.8824 96.0938V92.1875H58.0667V96.0938H28.8824ZM66.1176 96.0938H62.0922V90.2344C62.0922 89.532 61.7089 88.9182 61.1355 88.574C62.8517 87.8324 64.516 86.9824 66.1176 86.0295V96.0938ZM43.4746 88.2812C21.7222 88.2812 4.02542 71.1084 4.02542 50C4.02542 28.8916 21.7222 11.7188 43.4746 11.7188C65.227 11.7188 82.9237 28.8916 82.9237 50C82.9237 71.1084 65.227 88.2812 43.4746 88.2812Z" fill="#FE8B6F"/>
<path d="M92.9873 51.9531C94.0989 51.9531 95 51.0787 95 50C95 48.9213 94.0989 48.0469 92.9873 48.0469C91.8757 48.0469 90.9746 48.9213 90.9746 50C90.9746 51.0787 91.8757 51.9531 92.9873 51.9531Z" fill="#FE8B6F"/>
<path d="M43.4743 23.4374C28.3808 23.4374 16.1015 35.3535 16.1015 49.9999C16.1015 64.6464 28.3808 76.5624 43.4743 76.5624C58.5679 76.5624 70.8472 64.6464 70.8472 49.9999C70.8472 35.3535 58.5679 23.4374 43.4743 23.4374ZM43.4743 28.1529L45.6597 30.2734L43.4743 32.3939L41.2889 30.2734L43.4743 28.1529ZM43.4743 71.847L41.2889 69.7265L43.4743 67.606L45.6597 69.7265L43.4743 71.847ZM48.9946 72.0148L49.9295 71.1076C50.7155 70.3449 50.7155 69.1082 49.9295 68.3453L44.8977 63.4624C44.1118 62.6999 42.8373 62.6999 42.0512 63.4624L37.0194 68.3453C36.2334 69.108 36.2334 70.3447 37.0194 71.1076L37.9543 72.0148C29.5067 70.0199 22.8438 63.5542 20.7881 55.3568L21.723 56.264C22.116 56.6453 22.6311 56.8361 23.1462 56.8361C23.6612 56.8361 24.1765 56.6453 24.5693 56.264L29.6011 51.3812C30.3871 50.6185 30.3871 49.3818 29.6011 48.6189L24.5693 43.7361C23.7834 42.9736 22.5089 42.9736 21.7228 43.7361L20.7879 44.6433C22.8436 36.4458 29.5065 29.9802 37.9541 27.9853L37.0192 28.8925C36.2332 29.6552 36.2332 30.8919 37.0192 31.6548L42.0509 36.5376C42.444 36.9189 42.9591 37.1097 43.4741 37.1097C43.9892 37.1097 44.5044 36.9189 44.8973 36.5376L49.9291 31.6548C50.7151 30.8921 50.7151 29.6554 49.9291 28.8925L48.9942 27.9853C57.4418 29.9802 64.1046 36.4458 66.1604 44.6433L65.2255 43.7361C64.4396 42.9736 63.1651 42.9736 62.3789 43.7361L57.3472 48.6189C56.5612 49.3816 56.5612 50.6183 57.3472 51.3812L62.3789 56.264C62.772 56.6453 63.2871 56.8361 63.8021 56.8361C64.3172 56.8361 64.8324 56.6453 65.2253 56.264L66.1602 55.3568C64.105 63.5542 57.4422 70.0199 48.9946 72.0148ZM20.9605 49.9999L23.146 47.8794L25.3314 49.9999L23.146 52.1205L20.9605 49.9999ZM65.9881 49.9999L63.8027 52.1205L61.6173 49.9999L63.8027 47.8794L65.9881 49.9999ZM49.756 20.1406C50.2791 20.2433 50.8229 20.1403 51.2678 19.8542C51.7127 19.5682 52.0225 19.1225 52.129 18.615C52.3504 17.5583 51.646 16.5273 50.5571 16.3122C49.4662 16.0974 48.4055 16.781 48.1841 17.8378C47.9627 18.8947 48.6671 19.9257 49.756 20.1406ZM24.1282 25.5173C24.5327 25.5173 24.9393 25.4001 25.2935 25.156C26.1992 24.529 26.4106 23.3103 25.7665 22.4314C25.1224 21.5525 23.8645 21.3474 22.9588 21.9724C22.053 22.5974 21.8417 23.816 22.4858 24.6949C22.6716 24.9497 22.9178 25.1574 23.2036 25.3005C23.4894 25.4436 23.8065 25.518 24.1282 25.5173ZM57.9276 22.9433C58.2133 23.0884 58.531 23.1641 58.8535 23.164C59.5821 23.164 60.2845 22.7812 60.6428 22.1113C61.154 21.1542 60.7696 19.9746 59.7833 19.4765C58.7971 18.9804 57.5814 19.3535 57.0702 20.3107C56.557 21.2675 56.9414 22.4472 57.9276 22.9433ZM32.3098 21.3867C32.5332 21.3867 32.7607 21.3496 32.9821 21.2734C33.4853 21.1002 33.8971 20.7401 34.127 20.2724C34.3568 19.8047 34.3859 19.2676 34.2078 18.779C33.8355 17.7636 32.6842 17.2302 31.6376 17.5915C30.589 17.9511 30.0415 19.0683 30.4139 20.0839C30.7057 20.8847 31.4826 21.3867 32.3098 21.3867ZM41.1476 19.6091C41.1939 19.6091 41.2402 19.6072 41.2865 19.6035C42.3955 19.5292 43.2328 18.5976 43.1563 17.5214C43.0798 16.4453 42.1198 15.6328 41.0108 15.707C39.9018 15.7812 39.0645 16.7126 39.141 17.789C39.2134 18.8201 40.099 19.6091 41.1476 19.6091ZM76.1688 56.988C75.1001 56.6931 73.9871 57.2966 73.6831 58.3339C73.5377 58.8325 73.6023 59.3667 73.8628 59.8191C74.1232 60.2714 74.5581 60.6049 75.0719 60.746C75.2551 60.7968 75.4402 60.8224 75.6214 60.8224C76.4989 60.8224 77.304 60.2597 77.5556 59.4005C77.8595 58.363 77.2396 57.2831 76.1688 56.988ZM76.8793 47.9648C75.7683 47.9687 74.8706 48.8437 74.8727 49.9236V49.9999C74.8727 51.0781 75.7743 51.9531 76.8854 51.9531C77.9964 51.9531 78.8981 51.0781 78.8981 49.9999V49.914C78.8941 48.8337 77.9924 47.9609 76.8793 47.9648ZM73.7133 41.7675C73.8316 42.1776 74.0849 42.5389 74.4344 42.7963C74.784 43.0537 75.2107 43.1931 75.6496 43.1933C75.8307 43.1933 76.0118 43.1699 76.195 43.121C77.2638 42.8302 77.8897 41.754 77.5898 40.715C77.2899 39.6759 76.1789 39.0705 75.1101 39.3595C74.0394 39.6503 73.4134 40.7285 73.7133 41.7675ZM66.2321 28.2148C66.7715 28.2148 67.3089 28.0058 67.7054 27.5917C67.8855 27.4041 68.0257 27.1838 68.1181 26.9434C68.2104 26.7031 68.253 26.4475 68.2435 26.1912C68.2339 25.9349 68.1724 25.6829 68.0625 25.4497C67.9526 25.2165 67.7963 25.0066 67.6027 24.832C66.7896 24.0976 65.5176 24.1425 64.7588 24.9316C64.002 25.7206 64.0463 26.957 64.8614 27.6915C65.2335 28.0282 65.7234 28.2152 66.2321 28.2148ZM70.2394 34.0605C70.3776 34.2794 70.5589 34.4696 70.773 34.6203C70.9871 34.771 71.2298 34.8793 71.487 34.9388C71.7443 34.9983 72.0112 35.008 72.2724 34.9673C72.5335 34.9265 72.7838 34.8361 73.0089 34.7013C73.9548 34.1369 74.2507 32.9337 73.669 32.0158C73.0854 31.0958 71.8455 30.8087 70.8996 31.3751C69.9516 31.9398 69.6577 33.1427 70.2394 34.0626V34.0605ZM12.3659 54.1581C12.2149 53.0896 11.2005 52.3396 10.0996 52.4861C8.9986 52.6326 8.22773 53.6169 8.37667 54.6855C8.44911 55.1986 8.72847 55.6629 9.1534 55.9764C9.57832 56.2898 10.1141 56.4268 10.643 56.3572C11.7439 56.2109 12.5148 55.2265 12.3659 54.1581ZM49.8345 79.8437C48.7456 80.0605 48.0432 81.0937 48.2686 82.1503C48.4639 83.0742 49.3032 83.7109 50.2371 83.7109C50.3719 83.7109 50.5088 83.6972 50.6456 83.6699C51.7345 83.4531 52.4349 82.4201 52.2115 81.3632C51.9861 80.3066 50.9234 79.6267 49.8345 79.8437ZM32.8794 78.6912C31.8328 78.3281 30.6815 78.8554 30.3072 79.8708C29.9308 80.8865 30.4762 82.0037 31.5229 82.3689C31.7463 82.447 31.9757 82.4822 32.2011 82.4822C33.0264 82.4822 33.8012 81.9861 34.0951 81.1892C34.4715 80.1738 33.926 79.0546 32.8794 78.6912ZM57.829 77.1052C56.8408 77.5994 56.4523 78.7773 56.9615 79.7363C57.1314 80.0551 57.3883 80.3225 57.7043 80.5092C58.0202 80.6959 58.3829 80.7947 58.7528 80.7949C59.0628 80.7949 59.3788 80.7246 59.6726 80.5781C60.6609 80.0839 61.0493 78.9062 60.5401 77.9472C60.0309 76.9882 58.8172 76.6113 57.829 77.1052ZM41.367 80.4001V80.4023C40.258 80.33 39.3 81.1445 39.2255 82.2206C39.153 83.2968 39.9923 84.2267 41.1014 84.2988C41.1456 84.3029 41.1919 84.3029 41.2362 84.3029C42.2868 84.3029 43.1724 83.5119 43.2429 82.4787C43.3153 81.4021 42.476 80.4726 41.367 80.4001ZM64.9178 72.2558C64.1067 72.9939 64.0624 74.2285 64.8232 75.0175C65.0035 75.205 65.2202 75.3562 65.4609 75.4623C65.7015 75.5684 65.9614 75.6274 66.2255 75.636C66.4897 75.6445 66.753 75.6024 67.0004 75.512C67.2478 75.4216 67.4743 75.2848 67.6671 75.1093C68.4783 74.373 68.5225 73.1367 67.7617 72.3496C67.0029 71.5605 65.7289 71.5195 64.9178 72.2558ZM73.0471 65.2265C72.0991 64.664 70.8613 64.9531 70.2796 65.873C69.7 66.7929 69.9999 67.996 70.9479 68.5585C71.2759 68.7538 71.6382 68.8458 71.9965 68.8458C72.6728 68.8458 73.3349 68.5138 73.7153 67.9123C74.295 66.9921 73.9971 65.789 73.0471 65.2265ZM10.0935 47.5976C10.1841 47.6093 10.2726 47.6152 10.3612 47.6152C11.3555 47.6152 12.2189 46.9023 12.3558 45.9197C12.5027 44.8513 11.7278 43.8689 10.6269 43.7265C9.52392 43.582 8.51152 44.3339 8.36459 45.4023C8.21767 46.4724 8.99055 47.455 10.0935 47.5976ZM25.3579 74.8886C24.4502 74.2636 23.1943 74.4726 22.5522 75.3535C21.9101 76.2343 22.1235 77.4531 23.0312 78.0761C23.4668 78.3755 24.0071 78.4947 24.5333 78.4076C25.0595 78.3204 25.5284 78.0339 25.8369 77.6113C26.479 76.7302 26.2636 75.5117 25.3579 74.8886ZM13.646 35.246C12.6275 34.8144 11.442 35.2673 10.9952 36.2558H10.9972C10.5504 37.2441 11.0173 38.3945 12.0358 38.8261C12.2974 38.9372 12.5712 38.9902 12.8389 38.9902C13.6158 38.9902 14.3544 38.5527 14.6845 37.8183C15.1293 36.8298 14.6644 35.6777 13.646 35.246ZM11.9955 61.0664C10.9751 61.4939 10.5061 62.6445 10.9469 63.6345C11.275 64.371 12.0177 64.8122 12.7946 64.8122C13.0623 64.8122 13.334 64.7615 13.5936 64.6521C14.6141 64.2224 15.083 63.074 14.6422 62.0839C14.2015 61.0937 13.016 60.6386 11.9955 61.0664ZM16.2705 31.0722C16.6291 31.3546 17.0767 31.5091 17.5385 31.5097C18.1242 31.5097 18.7039 31.2634 19.1024 30.789C19.8028 29.9511 19.674 28.7226 18.8106 28.041C17.9491 27.3615 16.6811 27.4863 15.9787 28.3242C15.2783 29.1601 15.4091 30.3906 16.2705 31.0722ZM16.3188 68.9941C15.4594 69.6757 15.3306 70.9062 16.035 71.7419C16.2023 71.9405 16.4083 72.1052 16.6411 72.2265C16.874 72.3478 17.1292 72.4234 17.3922 72.449C17.6552 72.4746 17.9208 72.4496 18.1738 72.3755C18.4269 72.3015 18.6624 72.1798 18.8669 72.0173C19.0717 71.8551 19.2415 71.6553 19.3665 71.4294C19.4916 71.2034 19.5696 70.9557 19.596 70.7005C19.6223 70.4453 19.5966 70.1875 19.5202 69.942C19.4438 69.6964 19.3182 69.4679 19.1507 69.2695C18.4483 68.4335 17.1803 68.3105 16.3188 68.9941Z" fill="#FE8B6F"/>
<path d="M50.8625 39.6801L46.0237 44.6898C45.2261 44.3275 44.356 44.1399 43.4753 44.1404C42.5748 44.1395 41.6856 44.3352 40.8736 44.7131L33.6273 37.6812C32.8413 36.9187 31.5668 36.9187 30.7809 37.6812C29.9949 38.4439 29.9949 39.6807 30.7809 40.4436L38.0272 47.4752C37.6377 48.2631 37.4359 49.1261 37.4369 50C37.4369 53.2309 40.1456 55.8594 43.4751 55.8594C46.8045 55.8594 49.5132 53.2309 49.5132 50C49.5132 49.077 49.2914 48.2035 48.8979 47.4262L53.7995 42.3514C54.5597 41.5643 54.5184 40.3283 53.7073 39.5906C52.8962 38.8529 51.6225 38.893 50.8625 39.6801ZM43.4751 51.9531C42.3652 51.9531 41.4623 51.077 41.4623 50C41.4623 48.923 42.3652 48.0469 43.4751 48.0469C44.5849 48.0469 45.4878 48.923 45.4878 50C45.4878 51.077 44.5849 51.9531 43.4751 51.9531Z" fill="#FE8B6F"/>
</svg>
