<svg width="99" height="104" viewBox="0 0 99 104" fill="none" xmlns="http://www.w3.org/2000/svg">
<rect x="47" y="2" width="50" height="50" rx="15" fill="#FE8B6F" fill-opacity="0.2"/>
<path d="M93.5893 44.8786C95.7576 48.4044 96.9998 52.504 96.9998 56.878C96.9998 70.0676 85.7057 80.7601 71.7738 80.7601C57.842 80.7601 46.5479 70.0676 46.5479 56.878C46.5479 43.6883 57.842 32.9959 71.7738 32.9959C74.0845 32.994 76.3845 33.2926 78.6093 33.8831" stroke="#FE8B6F" stroke-width="4" stroke-miterlimit="10" stroke-linecap="round" stroke-linejoin="round"/>
<path d="M46.548 56.878C46.548 62.9004 48.9032 68.4024 52.7912 72.6036C47.396 77.4674 40.0945 80.4552 32.0565 80.4552C15.4567 80.4552 2 67.7154 2 52C2 36.2845 15.4567 23.5447 32.0565 23.5447C42.879 23.5447 52.3661 28.9593 57.6582 37.0853C50.9556 41.376 46.548 48.6402 46.548 56.878Z" stroke="#FE8B6F" stroke-width="4" stroke-miterlimit="10" stroke-linecap="round" stroke-linejoin="round"/>
<path d="M54.8929 74.6219C51.4857 80.689 48.158 86.0102 48.158 91.2276V102H15.9547V91.2276C15.9547 80.6423 2.21884 69.5955 2.00415 52.7663C2.23387 68.1301 15.7271 80.4553 32.0564 80.4553C40.075 80.4553 47.4088 77.4837 52.8232 72.6382C53.4695 73.3374 54.1608 74 54.8929 74.6219ZM58.5726 36.5244C58.2849 36.6911 58.0016 36.8638 57.7225 37.0427C52.4239 28.9411 42.8617 23.5447 32.0564 23.5447C15.7271 23.5447 2.23387 35.8699 2.00415 51.2337C2.21884 34.4045 15.9547 23.3699 15.9547 12.7724V2H48.158V12.7724C48.158 19.9309 54.4399 27.2988 58.5726 36.5244Z" stroke="#FE8B6F" stroke-width="4" stroke-miterlimit="10" stroke-linecap="round" stroke-linejoin="round"/>
<path d="M48.1583 92.6504H39.5708V88.5854H24.5425V92.6504H15.955M15.955 11.3496H24.5425V15.4147H39.5708V11.3496H48.1583" stroke="#FE8B6F" stroke-width="4" stroke-miterlimit="10" stroke-linecap="round" stroke-linejoin="round"/>
<path d="M32.0565 56.0651C34.4279 56.0651 36.3503 54.2452 36.3503 52.0001C36.3503 49.755 34.4279 47.9351 32.0565 47.9351C29.6851 47.9351 27.7627 49.755 27.7627 52.0001C27.7627 54.2452 29.6851 56.0651 32.0565 56.0651Z" stroke="#FE8B6F" stroke-width="4" stroke-miterlimit="10" stroke-linecap="round" stroke-linejoin="round"/>
<path d="M60.6206 68.5651C63.5704 71.0915 67.482 72.6302 71.7737 72.6302C76.0653 72.6302 79.977 71.0915 82.9268 68.5651M60.6206 45.1911C63.5704 42.6647 67.482 41.1261 71.7737 41.1261C76.0653 41.1261 79.977 42.6647 82.9268 45.1911M41.1953 43.3769L35.1075 49.1401M16.9058 37.6279L29.0355 49.1113" stroke="#FE8B6F" stroke-width="4" stroke-miterlimit="10" stroke-linecap="round" stroke-linejoin="round"/>
<ellipse cx="87.5" cy="38.9749" rx="3.16667" ry="2.99797" fill="#FE8B6F"/>
<ellipse cx="32.6114" cy="30.9804" rx="3.16667" ry="2.99797" fill="#FE8B6F"/>
<ellipse cx="9.38871" cy="52.9655" rx="3.16667" ry="2.99797" fill="#FE8B6F"/>
<ellipse cx="32.6114" cy="72.952" rx="3.16667" ry="2.99797" fill="#FE8B6F"/>
</svg>
