<svg width="40" height="40" viewBox="0 0 40 40" fill="none" xmlns="http://www.w3.org/2000/svg">
<path d="M21.6368 1.67207C21.6368 1.22932 21.8127 0.804699 22.1257 0.491625C22.4388 0.17855 22.8634 0.00266599 23.3062 0.00266599C27.7321 0.00752664 31.9755 1.76792 35.1051 4.89762C38.2348 8.02732 39.9951 12.2707 40 16.6968C40 17.1395 39.8241 17.5641 39.5111 17.8772C39.198 18.1903 38.7734 18.3662 38.3306 18.3662C37.8879 18.3662 37.4633 18.1903 37.1502 17.8772C36.8371 17.5641 36.6612 17.1395 36.6612 16.6968C36.6573 13.1559 35.2489 9.76128 32.7452 7.25754C30.2415 4.75381 26.8469 3.34546 23.3062 3.34148C22.8634 3.34148 22.4388 3.1656 22.1257 2.85253C21.8127 2.53945 21.6368 2.11483 21.6368 1.67207ZM23.3062 10.0191C25.0771 10.0191 26.7756 10.7227 28.0279 11.975C29.2802 13.2273 29.9837 14.9257 29.9837 16.6968C29.9837 17.1395 30.1596 17.5641 30.4726 17.8772C30.7857 18.1903 31.2103 18.3662 31.6531 18.3662C32.0958 18.3662 32.5204 18.1903 32.8335 17.8772C33.1466 17.5641 33.3225 17.1395 33.3225 16.6968C33.3198 14.041 32.2637 11.4949 30.3858 9.61698C28.508 7.73911 25.9618 6.68295 23.3062 6.6803C22.8634 6.6803 22.4388 6.85619 22.1257 7.16926C21.8127 7.48234 21.6368 7.90696 21.6368 8.34971C21.6368 8.79247 21.8127 9.21709 22.1257 9.53016C22.4388 9.84324 22.8634 10.0191 23.3062 10.0191ZM38.4859 27.9469C39.4533 28.917 39.9966 30.2312 39.9966 31.6012C39.9966 32.9713 39.4533 34.2855 38.4859 35.2556L36.9667 37.0068C23.2945 50.0966 -9.97637 16.8336 2.91128 3.11778L4.83107 1.44837C5.80227 0.507958 7.10466 -0.0122768 8.45648 0.000220044C9.8083 0.0127168 11.1009 0.55694 12.0545 1.51515C12.1063 1.5669 15.1996 5.58517 15.1996 5.58517C16.1175 6.54947 16.6285 7.83041 16.6263 9.16172C16.6241 10.493 16.109 11.7723 15.1879 12.7336L13.2548 15.1642C14.3246 17.7637 15.8975 20.1261 17.8832 22.1158C19.8688 24.1055 22.228 25.6832 24.8253 26.7583L27.2709 24.8134C28.2323 23.8931 29.5114 23.3786 30.8423 23.3767C32.1731 23.3748 33.4536 23.8858 34.4176 24.8034C34.4176 24.8034 38.4341 27.8951 38.4859 27.9469ZM36.1888 30.3742C36.1888 30.3742 32.194 27.3008 32.1422 27.2491C31.7983 26.9081 31.3336 26.7167 30.8493 26.7167C30.365 26.7167 29.9002 26.9081 29.5563 27.2491C29.5113 27.2958 26.1441 29.9786 26.1441 29.9786C25.9172 30.1592 25.6472 30.2776 25.3606 30.3221C25.074 30.3666 24.7808 30.3356 24.5098 30.2323C21.1451 28.9795 18.0889 27.0183 15.5482 24.4813C13.0076 21.9444 11.0419 18.8911 9.78414 15.5282C9.67262 15.2535 9.63626 14.954 9.6788 14.6606C9.72135 14.3672 9.84125 14.0905 10.0262 13.8588C10.0262 13.8588 12.7089 10.4899 12.754 10.4465C13.095 10.1026 13.2863 9.63785 13.2863 9.15353C13.2863 8.66921 13.095 8.2045 12.754 7.86057C12.7022 7.81049 9.62888 3.81226 9.62888 3.81226C9.27982 3.49925 8.82425 3.33163 8.35556 3.34373C7.88687 3.35584 7.44056 3.54676 7.10811 3.87736L5.18832 5.54677C-4.23035 16.872 24.6016 44.1051 34.5261 34.7264L36.0469 32.9735C36.4033 32.6434 36.6173 32.1876 36.6438 31.7026C36.6703 31.2175 36.5071 30.7412 36.1888 30.3742Z" fill="#FE8B6F"/>
</svg>
