<svg width="236" height="26" viewBox="0 0 236 26" fill="none" xmlns="http://www.w3.org/2000/svg">
<path d="M2.91188 2.89928V10.1631H11.0395V12.5012H2.91188V19.9832H11.9995V22.3213H0V0.561151H11.9995V2.89928H2.91188Z" fill="white"/>
<path d="M31.1889 17.4892H21.4613L19.6694 22.3213H16.5975L24.6612 0.717026H28.0211L36.0527 22.3213H32.9809L31.1889 17.4892ZM30.357 15.1823L26.3251 4.20863L22.2933 15.1823H30.357Z" fill="white"/>
<path d="M58.0623 6.88969C57.4437 5.6219 56.5477 4.64508 55.3744 3.95923C54.2011 3.2526 52.8358 2.89928 51.2786 2.89928C49.7213 2.89928 48.3134 3.2526 47.0548 3.95923C45.8175 4.64508 44.8362 5.64268 44.1109 6.95204C43.4069 8.24061 43.0549 9.73701 43.0549 11.4412C43.0549 13.1455 43.4069 14.6419 44.1109 15.9305C44.8362 17.219 45.8175 18.2166 47.0548 18.9233C48.3134 19.6091 49.7213 19.952 51.2786 19.952C53.4545 19.952 55.2464 19.3181 56.6544 18.0504C58.0623 16.7826 58.8836 15.0679 59.1182 12.9065H50.2226V10.5995H62.2221V12.7818C62.0515 14.5691 61.4755 16.211 60.4942 17.7074C59.5129 19.1831 58.2223 20.3573 56.6224 21.2302C55.0224 22.0823 53.2412 22.5084 51.2786 22.5084C49.2093 22.5084 47.3214 22.0408 45.6148 21.1055C43.9082 20.1495 42.5536 18.8297 41.551 17.1463C40.5697 15.4628 40.0791 13.5612 40.0791 11.4412C40.0791 9.32134 40.5697 7.41966 41.551 5.73621C42.5536 4.03197 43.9082 2.71223 45.6148 1.77698C47.3214 0.820943 49.2093 0.342925 51.2786 0.342925C53.6465 0.342925 55.7371 0.914468 57.5503 2.05755C59.3849 3.20064 60.7182 4.81135 61.5501 6.88969H58.0623Z" fill="white"/>
<path d="M70.584 20.0144H78.3917V22.3213H67.6721V0.592326H70.584V20.0144Z" fill="white"/>
<path d="M85.9959 2.89928V10.1631H94.1235V12.5012H85.9959V19.9832H95.0835V22.3213H83.084V0.561151H95.0835V2.89928H85.9959Z" fill="white"/>
<path d="M108.929 22.5396C106.305 22.5396 104.151 21.9368 102.465 20.7314C100.78 19.5052 99.8735 17.7594 99.7455 15.494H106.433C106.497 16.263 106.732 16.8241 107.137 17.1775C107.543 17.5308 108.065 17.7074 108.705 17.7074C109.281 17.7074 109.75 17.5723 110.113 17.3022C110.497 17.0112 110.689 16.6163 110.689 16.1175C110.689 15.4732 110.38 14.9744 109.761 14.6211C109.142 14.2678 108.14 13.8729 106.753 13.4365C105.281 12.9584 104.087 12.5012 103.169 12.0647C102.273 11.6075 101.484 10.9528 100.801 10.1007C100.14 9.22782 99.8095 8.09512 99.8095 6.70264C99.8095 5.28937 100.172 4.08393 100.897 3.08633C101.623 2.06795 102.625 1.29896 103.905 0.779376C105.185 0.259792 106.636 0 108.257 0C110.881 0 112.972 0.602717 114.529 1.80815C116.108 2.99281 116.95 4.66587 117.057 6.82734H110.241C110.22 6.16227 110.006 5.66347 109.601 5.33094C109.217 4.9984 108.716 4.83213 108.097 4.83213C107.628 4.83213 107.244 4.96723 106.945 5.23741C106.647 5.50759 106.497 5.89209 106.497 6.39089C106.497 6.80655 106.657 7.17026 106.977 7.48201C107.319 7.77298 107.735 8.03277 108.225 8.26139C108.716 8.46922 109.441 8.73941 110.401 9.07194C111.83 9.54996 113.004 10.028 113.921 10.506C114.86 10.9632 115.66 11.6179 116.321 12.47C117.003 13.3014 117.345 14.3613 117.345 15.6499C117.345 16.9592 117.003 18.1335 116.321 19.1727C115.66 20.2118 114.689 21.0328 113.409 21.6355C112.15 22.2382 110.657 22.5396 108.929 22.5396Z" fill="white"/>
<path d="M137.316 26L134.82 22.3525C134.116 22.4772 133.401 22.5396 132.676 22.5396C130.564 22.5396 128.623 22.0616 126.852 21.1055C125.082 20.1287 123.674 18.7882 122.628 17.0839C121.604 15.3589 121.092 13.4157 121.092 11.2542C121.092 9.09273 121.604 7.15987 122.628 5.45564C123.674 3.73062 125.082 2.39009 126.852 1.43405C128.623 0.478018 130.564 0 132.676 0C134.809 0 136.75 0.478018 138.5 1.43405C140.27 2.39009 141.667 3.73062 142.691 5.45564C143.715 7.15987 144.227 9.09273 144.227 11.2542C144.227 13.0623 143.854 14.7354 143.107 16.2734C142.361 17.7906 141.337 19.0584 140.036 20.0767L144.803 26H137.316ZM127.492 11.2542C127.492 12.9792 127.951 14.3509 128.868 15.3693C129.785 16.3669 131.055 16.8657 132.676 16.8657C134.276 16.8657 135.534 16.3565 136.452 15.3381C137.39 14.3197 137.86 12.9584 137.86 11.2542C137.86 9.50839 137.39 8.13669 136.452 7.13909C135.534 6.1207 134.276 5.61151 132.676 5.61151C131.055 5.61151 129.785 6.1207 128.868 7.13909C127.951 8.13669 127.492 9.50839 127.492 11.2542Z" fill="white"/>
<path d="M154.822 0.342925V13.0935C154.822 14.2782 155.099 15.1926 155.654 15.8369C156.23 16.4812 157.094 16.8034 158.246 16.8034C159.397 16.8034 160.261 16.4812 160.837 15.8369C161.435 15.1719 161.733 14.2574 161.733 13.0935V0.342925H168.005V13.0935C168.005 15.1095 167.568 16.8345 166.693 18.2686C165.819 19.6819 164.624 20.7522 163.109 21.4796C161.616 22.1863 159.952 22.5396 158.118 22.5396C156.283 22.5396 154.64 22.1863 153.19 21.4796C151.76 20.7522 150.63 19.6819 149.798 18.2686C148.987 16.8553 148.582 15.1303 148.582 13.0935V0.342925H154.822Z" fill="white"/>
<path d="M187.33 18.7362H179.33L178.114 22.3213H171.522L179.746 0.342925H186.978L195.169 22.3213H188.546L187.33 18.7362ZM185.762 14.06L183.33 6.95204L180.93 14.06H185.762Z" fill="white"/>
<path d="M210.237 22.3213L205.757 14.2158H205.085V22.3213H198.813V0.342925H208.701C210.514 0.342925 212.05 0.654676 213.309 1.27818C214.567 1.8809 215.517 2.72262 216.157 3.80336C216.797 4.86331 217.117 6.05835 217.117 7.38849C217.117 8.88489 216.69 10.2046 215.837 11.3477C215.005 12.47 213.778 13.2702 212.157 13.7482L217.245 22.3213H210.237ZM205.085 10.0384H208.189C209.042 10.0384 209.682 9.84093 210.109 9.44604C210.535 9.05116 210.749 8.47962 210.749 7.73141C210.749 7.02478 210.525 6.47402 210.077 6.07914C209.65 5.66347 209.021 5.45564 208.189 5.45564H205.085V10.0384Z" fill="white"/>
<path d="M227.84 5.23741V8.82254H235.04V13.4676H227.84V17.4269H236V22.3213H221.569V0.342925H236V5.23741H227.84Z" fill="white"/>
</svg>
